/* XPM */
static char *f5ead58e1a4b48a18cc6b3c258275041zfalVSegwXJHBNN2[] = {
/* columns rows colors chars-per-pixel */
"70 70 93 2 ",
"   c None",
".  c #A06D3D",
"X  c #A16E3D",
"o  c #A26E3D",
"O  c #A36F3D",
"+  c #A46F3D",
"@  c #A5703E",
"#  c #A6703E",
"$  c #A7713E",
"%  c #A8723E",
"&  c #A9733F",
"*  c #AA733F",
"=  c #AB743F",
"-  c #AC743F",
";  c #AD753F",
":  c #A37141",
">  c #A47141",
",  c #A67546",
"<  c #AD7540",
"1  c #AE7540",
"2  c #AD7640",
"3  c #AE7640",
"4  c #A9794B",
"5  c #AD7948",
"6  c #AF7C4C",
"7  c #B07842",
"8  c #B17943",
"9  c #B07944",
"0  c #B17A44",
"q  c #B27B44",
"w  c #B37C45",
"e  c #B47D46",
"r  c #B27C49",
"t  c #B67E48",
"y  c #B67F48",
"u  c #B77F48",
"i  c #B47F4D",
"p  c #AC7D50",
"a  c #AF7E50",
"s  c #B98046",
"d  c #B4804D",
"f  c #BA834C",
"g  c #BB834D",
"h  c #BA844C",
"j  c #BB844C",
"k  c #BA844D",
"l  c #BB844D",
"z  c #AF8154",
"x  c #B28051",
"c  c #B78352",
"v  c #B98756",
"b  c #B38559",
"n  c #B6895E",
"m  c #BB8A5B",
"M  c #BE8E5F",
"N  c #B98D63",
"B  c #BD8F63",
"V  c #BE9064",
"C  c #BC9167",
"Z  c #BD9167",
"A  c #BF956C",
"S  c #C09164",
"D  c #C09368",
"F  c #C29469",
"G  c #C0956C",
"H  c #C5986D",
"J  c #C99869",
"K  c #C9996B",
"L  c #C39971",
"P  c #C79B72",
"I  c #C69D76",
"U  c #C79D76",
"Y  c #CB9D71",
"T  c #CC9E73",
"R  c #C99F76",
"E  c #CC9F75",
"W  c #CDA177",
"Q  c #C9A17A",
"!  c #CEA279",
"~  c #CCA27B",
"^  c #CCA57F",
"/  c #CEA67F",
"(  c #CFA67F",
")  c #CFA984",
"_  c #D1A983",
"`  c #D0A984",
"'  c #D1AA85",
"]  c #D2AB87",
"[  c #D3AC88",
"{  c #D2AD88",
"}  c #D3AC89",
"|  c #D2AD89",
" . c #D3AD89",
/* pixels */
"                                                                   . . . . .                                                                ",
"                                                               . . . . . . . .                                                              ",
"                                                             .` ! Y Y Y Y W _  .                                                            ",
"                                                            ` J J J J J J J J /  .                                                          ",
"                                                           .T J J J J J J J J J `                                                           ",
"                                                          / J J J J J J J J J J E                                                           ",
"            l l l l l l l l l l l l l l l l l l l l l l l l l l l l l l l l l l l l l l l l l l l l l l l l l l l l l l l l l l             ",
"        g l l l l l l l l l l l l l l l l l l l l l l l l l l l l l l l l l l l l l l l l l l l l l l l l l l l l l l l l l l l l g         ",
"    l l l y w 8 8 8 3 3 3 3 3 3 3 3 3 3 3 3 3 3 3 3 3 3 3 3 3 3 3 3 3 3 3 3 3 3 3 3 3 3 3 3 3 3 3 3 3 3 3 3 3 3 3 3 3 3 8 8 8 w y g l l     ",
"  l l e 3 3 3 3 3 3 3 3 3 3 3 3 3 3 3 3 3 3 3 3 3 3 3 3 3 3 3 3 3 3 3 3 3 3 3 3 3 3 3 3 3 3 3 3 3 3 3 3 3 3 3 3 3 3 3 3 3 3 3 3 3 3 e l l   ",
"  l 8 3 3 3 3 3 3 3 3 3 3 3 3 3 3 3 3 3 3 3 3 3 3 3 3 3 3 3 3 3 3 3 3 3 3 3 3 3 3 3 3 3 3 3 3 3 3 3 3 3 3 3 3 3 3 3 3 3 3 3 3 3 3 3 3 q g   ",
"l q 3 3 3 3 3 3 3 3 3 3 3 3 3 3 3 3 3 3 3 3 3 3 3 3 3 3 3 3 3 3 3 3 3 3 3 3 3 3 3 3 3 3 3 3 3 3 3 3 3 3 3 3 3 3 3 3 3 3 3 3 3 3 3 3 3 3 q l ",
"y 3 3 3 3 3 3 3 3 3 3 3 3 3 3 3 3 3 3 3 3 3 3 3 3 3 3 3 3 3 3 3 3 3 3 3 3 3 3 3 3 3 3 3 3 3 3 3 3 3 3 3 3 3 3 3 3 3 3 3 3 3 3 3 3 3 3 3 3 y ",
"q 3 3 3 3 3 3 3 3 3 3 3 3 3 3 3 3 3 3 3 3 3 3 3 3 3 3 3 3 3 3 3 3 3 3 3 3 3 3 3 3 3 3 3 3 3 3 3 3 3 3 3 3 3 3 3 3 3 3 3 3 3 3 3 3 3 3 3 3 q ",
"q 3 3 3 3 3 3 3 3 3 3 3 3 3 3 3 3 3 3 3 3 3 3 3 3 3 3 3 3 3 3 3 3 3 3 3 3 3 3 3 3 ; * * $ $ . . 3 3 3 3 3 3 3 3 3 3 3 3 3 3 3 3 3 3 3 3 3 3 ",
"8 3 3 3 3 3 3 3 3 3 * * * * $ $ $ $ + . . . = 3 3 3 3 ; 3 3 3 3 3 3 3 ; ; 3 3 3 3 $ . . . . . . 3 3 3 3 3 3 3 = * * $ $ $ 3 3 3 3 3 3 3 3 3 ",
"3 3 3 3 3 3 3 3 3 3 . . . . . . . . . . . . ; 3 3 ; $ . * 3 3 3 3 3 ; . . = 3 3 3 5 p z N V I I 3 $ . . . . . . . . . . . 3 3 3 3 3 3 3 3 3 ",
"3 3 3 3 3 3 3 3 3 3 p p p p N N N N I I I I c 3 = . . , . * 3 3 3 3 . : : . * 3 3 S  . . . . . .3 . . . . . . p p p N N V 3 3 3 3 3 3 3 3 3 ",
"3 3 3 3 3 3 3 3 3 3  . . . . . . . . . . . .3 * . . V  .b . = 3 3 $ : Q ) 4 . $ 3 S  . . . . . .3 D I I )  . . . . . . .` 3 3 3 3 3 3 3 3 3 ",
"3 3 3 3 3 3 3 3 3 3  . . . . . . . . . . . .* . : I  . . .z . = $ . Q  . . .b . $ S  . . . . .! 3 I  . . . . . . . . . .R 3 3 3 3 3 3 3 3 3 ",
"3 3 3 3 3 3 3 3 3 3  . . . . . . . . . . .R 3 x /  . . . .) 4 . . A  . . . . .G ; S  . . . . .R 3 )  . . . . . . . . . .R 3 3 3 3 3 3 3 3 3 ",
"3 3 3 3 3 3 3 3 3 3  . . . . . . . . . . .P d  . . . . . . .) 4 A  . . . . . . .S S  . . . . .R 3  . . . . . . . . . . .F 3 3 3 3 3 3 3 3 3 ",
"3 3 3 3 3 3 3 3 3 3  . . . . . .I I I I R m 3 m  . . . . . . . . . . . . . . .H 3 S  . . . . .R 3  . . . . . . . . . .! m 3 3 3 3 3 3 3 3 3 ",
"3 3 3 3 3 3 3 3 3 3  . . . . . .p p p p 3 3 3 3 M  . . . . . . . . . . . . .R 3 3 S  . . . . .R 3 R R P  . . . . .R 3 3 3 3 3 3 3 3 3 3 3 3 ",
"3 3 3 3 3 3 3 3 3 3  . . . . . . . . ./ 3 3 3 3 3 H  . . . . . . . . . . .! q 3 3 B  . . . . .R 3 3 3 3  . . . . .R 3 3 3 3 3 3 3 3 3 3 3 3 ",
"3 3 3 3 3 3 3 3 3 3  . . . . . . . . .R 3 3 3 3 3 3 H  . . . . . . . . .! q 3 3 3 B  . . . . .F 3 3 3 3  . . . . .R 3 3 3 3 3 3 3 3 3 3 3 3 ",
"3 3 3 3 3 3 3 3 3 3 `  . . . . . . . .V * * 3 3 3 3 * L  . . . . . . .Q > = 3 3 3 B  . . . . .S 3 3 3 q  . . . . .R 3 3 3 3 3 3 3 3 3 3 3 3 ",
"3 3 3 3 3 3 3 3 3 3 R  . . . .) I I I b . . 3 3 3 = . A  . . . . . . .) 4 . = 3 3 B  . . . . .S 3 3 3 c  . . . . .R 3 3 3 3 3 3 3 3 3 3 3 3 ",
"3 3 3 3 3 3 3 3 3 3 R  . . . .I . . . p p p 3 3 = . n  . . . . . . . . .) 4 . = 3 B  . . . . .S 3 3 3 c  . . . . .R 3 3 3 3 3 3 3 3 3 3 3 3 ",
"3 3 3 3 3 3 3 3 3 3 R  . . . . . . . . . . .3 ; . b  . . . . . . . . . . .) 4 . = B  . . . . .S 3 3 3 c  . . . . .R 3 3 3 3 3 3 3 3 3 3 3 3 ",
"3 3 3 3 3 3 3 3 3 3 R  . . . . . . . . . . .; . p  . . . . . ./  . . . . . .) 4 . B  . . . . .S 3 3 3 c  . . . . .R 3 3 3 3 3 3 3 3 3 3 3 3 ",
"3 3 3 3 3 3 3 3 3 3 R  . . . . . . . . . . .3 6 )  . . . . . .c F  . . . . . .) i B  . . . . .v 3 3 3 c  . . . . .R 3 3 3 3 3 3 3 3 3 3 3 3 ",
"3 3 3 3 3 3 3 3 3 3 R  . . . . . . . . . . .q /  . . . . . .F 3 3 R  . . . . . .R B  . . . . .c 3 3 3 c  . . . . .R 3 3 3 3 3 3 3 3 3 3 3 3 ",
"3 3 3 3 3 3 3 3 3 3 R  . . . . . . . . . . .3 S  . . . . .` q 3 3 q /  . . . .! q S  . . . . .c 3 3 3 M  . . . . .R 3 3 3 3 3 3 3 3 3 3 3 3 ",
"3 3 3 3 3 3 3 3 3 3 R  . . . . . . .R R R R 3 3 m  . . . .m 3 3 3 3 d `  . .` q 3 F R F S v c q 3 3 3 S  . . . . .R 3 3 3 3 3 3 3 3 3 3 3 3 ",
"3 3 3 3 3 3 3 3 3 3 d c c c q 3 3 3 3 3 3 3 3 3 3 d `  .R 3 3 3 3 3 3 m  .` d 3 3 3 3 3 3 3 3 3 3 3 3 S  . . .` R F 3 3 3 3 3 3 3 3 3 3 3 3 ",
"3 3 3 3 3 3 3 3 3 3 3 3 3 3 3 3 3 3 3 3 3 3 3 3 3 3 d ! r 3 3 3 3 3 3 3 S d 3 3 3 3 3 3 3 3 3 3 3 3 3 r c r 3 3 3 3 3 3 3 3 3 3 3 3 3 3 3 3 ",
"3 3 3 3 3 3 3 3 3 3 3 3 3 3 3 3 3 3 3 3 3 3 3 3 3 3 3 3 3 3 3 3 3 3 3 3 3 3 3 3 3 3 3 3 3 3 3 3 3 3 3 3 3 3 3 3 3 3 3 3 3 3 3 3 3 3 3 3 3 3 ",
"3 3 3 3 3 3 3 3 3 3 3 3 3 3 3 3 3 3 3 3 3 3 3 3 3 3 3 3 3 3 3 3 3 3 3 3 3 3 3 3 3 3 3 3 3 3 3 3 3 3 3 3 3 3 3 3 3 3 3 3 3 3 3 3 3 3 3 3 3 3 ",
"3 3 3 3 3 3 3 3 3 3 3 3 3 3 3 3 3 3 3 3 3 3 3 3 3 3 3 3 3 3 3 3 3 3 3 3 3 3 3 3 3 3 3 3 3 3 3 3 3 3 3 3 3 3 3 3 3 3 3 3 3 3 3 3 3 3 3 3 3 3 ",
"  3 3 3 3 3 3 3 3 3 3 3 3 3 3 3 3 3 3 3 3 3 3 3 3 3 3 3 3 3 3 3 3 3 3 3 3 3 3 3 3 3 3 3 3 3 3 3 3 3 3 3 3 3 3 3 3 3 3 3 3 3 3 3 3 3 3 3 3   ",
"  3 3 3 3 3 3 3 3 3 3 3 3 3 3 3 3 3 3 3 3 3 3 3 3 3 3 3 3 3 3 3 3 3 3 3 3 3 3 3 3 3 3 3 3 3 3 3 3 3 3 3 3 3 3 3 3 3 3 3 3 3 3 3 3 3 3 3 3   ",
"  3 3 3 3 3 3 3 3 3 3 3 3 3 3 3 3 3 3 3 3 3 3 3 3 3 3 3 3 3 3 3 3 3 3 3 3 3 3 3 3 3 3 3 3 3 3 3 3 3 3 3 3 3 3 3 3 3 3 3 3 3 3 3 3 3 3 3     ",
"    3 3 3 3 3 3 3 3 3 3 3 3 3 3 3 3 3 3 3 3 3 3 3 3 3 3 3 3 3 3 3 3 3 3 3 3 3 3 3 3 3 3 3 3 3 3 3 3 3 3 3 3 3 3 3 3 3 3 3 3 3 3 3 3 3 3     ",
"        3 3 3 3 3 3 3 3 3 3 3 3 3 3 3 3 3 3 3 3 3 3 3 3 3 3 3 3 3 3 3 3 3 3 3 3 3 3 3 3 3 3 3 3 3 3 3 3 3 3 3 3 3 3 3 3 3 3 3 3 3 3         ",
"          3 3 3 3 3 3 3 3 3 3 3 3 3 3 3 3 3 3 3 3 3 3 3 3 3 3 3 3 3 3 3 3 3 3 3 3 3 3 3 3 3 3 3 3 3 3 3 3 3 3 3 3 3 3 3 3 3 3 3 3           ",
"                                                          s s s s s s s s s s s s                                                           ",
"                                                          s s s s s s s s s s s s                                                           ",
"                                                          J J J J J J J J J J J J                                                           ",
"                                                          J J J J J J J J J J J J                                                           ",
"                                                          J J J J J J J J J J J J                                                           ",
"                                                          J J J J J J J J J J J J                                                           ",
"                                                          J J J J J J J J J J J J                                                           ",
"                                                          J J J J J J J J J J J J                                                           ",
"                                                          J J J J J J J J J J J J                                                           ",
"                                                          J J J J J J J J J J J J                                                           ",
"                                                          J J J J J J J J J J J J                                                           ",
"                                                          J J J J J J J J J J J J                                                           ",
"                                                          J J J J J J J J J J J J                                                           ",
"                                                          J J J J J J J J J J J J                                                           ",
"                                                          J J J J J J J J J J J J                                                           ",
"                                                          J J J J J J J J J J J J                                                           ",
"                                                          J J J J J J J J J J J J                                                           ",
"                                                          J J J J J J J J J J J J                                                           ",
"                                                          J J J J J J J J J J J J                                                           ",
"                                                          J J J J J J J J J J J J                                                           ",
"                                                          J J J J J J J J J J J J                                                           ",
"                                                          J J J J J J J J J J J J                                                           ",
"                                                          J J J J J J J J J J J J                                                           ",
"                                                          J J J J J J J J J J J J                                                           "
};
