/* XPM */
static char *d28c537ab1f44a959b2276ef356641cc6d4YG4DSsPmpaw3e[] = {
/* columns rows colors chars-per-pixel */
"70 70 50 1 ",
"  c None",
". c #DCB000",
"X c #DCB001",
"o c #DEB200",
"O c #DEB201",
"+ c #E0B400",
"@ c #E1B401",
"# c #E3B600",
"$ c #E3B601",
"% c #E6B800",
"& c #E6B801",
"* c #E8BA00",
"= c #E9BA01",
"- c #EBBC00",
"; c #EBBC01",
": c #EEBE00",
"> c #F0C000",
", c #F3C200",
"< c #F6C400",
"1 c #F8C500",
"2 c #F8C600",
"3 c #FAC800",
"4 c #FBC800",
"5 c #FFCB00",
"6 c #FFCC00",
"7 c #FECD07",
"8 c #FECE0E",
"9 c #FFCF13",
"0 c #FECF15",
"q c #FED11C",
"w c #FED223",
"e c #FED225",
"r c #FED32A",
"t c #FED531",
"y c #FED638",
"u c #FED73F",
"i c #FED841",
"p c #FED946",
"a c #FED947",
"s c #FEDA4D",
"d c #FEDA4E",
"f c #FEDB54",
"g c #FEDC58",
"h c #FDDD5A",
"j c #FEDD5B",
"k c #FEDE62",
"l c #FEDF69",
"z c #FDE170",
"x c #FEE070",
"c c #FEE170",
/* pixels */
"                                                                      ",
"                                                                      ",
"                                                                      ",
"                                                                      ",
"                                                                      ",
"                                                                      ",
"                                                                      ",
"                                                                      ",
"                                                                      ",
"                                                                      ",
"                                                                      ",
"                                                                      ",
"                                                                      ",
"                                                                      ",
"                ccccccc                                               ",
"             cccccccccccc                                             ",
"            cckpwqqqqqrslcc                                           ",
"           ckr76666666667ylc                                          ",
"          cs666666666666667kc                                         ",
"         ck76666666666666660kc                                        ",
"        cl0666666666666666660lc                                       ",
"        cw6666666666666666666wc                                       ",
"       cq666666666666666666666tc                                      ",
"       p66666666666666666666666k                                      ",
"      c76666666666   6666666666rc                                     ",
"      p6666666666     6666666666h                                     ",
"      q666666666      5666666666t                                     ",
"     h6666666665       6666666668cccccccccccccccccccccccccccccc       ",
"     y666666666        6666666666hcccccccccccccccccccccccccccccc      ",
"     e666666666         6666666666666666666666666666666666667qrl      ",
"     q666666666         666666666666666666666666666666666666666qc     ",
"     7666666666         6666666666666666666666666666666666666666i     ",
"     6666666666         66666666666666666666666666666666666666669     ",
"     6666666666         66666666666666666666666666666666666666666     ",
"     6666666666         6666666666666666666666666666665566666666      ",
"     6666666666        p6666666666666666666666666666565666666666      ",
"     6666666666s       y666666666666666666666666666666666666656       ",
"      666666666u       w666666666          OOOOOOOOOOOOOOOOOO         ",
"      666666666qc     l7666666666          OOOOOOOOOOOOOOOOOO         ",
"      5666666666fc   cy6666666666          ##################         ",
"       6666666660lccch7666666666           ##################         ",
"       66666666660lck76666666666           %%%%%%%%%%%%%%%%%%         ",
"        66666666666666666666666            ******************         ",
"        56666666666666666666666            ------------------         ",
"         666666666666666666665             ::::::::::::::::::         ",
"          6666666666666666666              ,,,,,,,,,,,,,,,,,,         ",
"           66666666666666666               ,,,,,,,,,,,,,,,,,,         ",
"            666666666666665                <<<<<<<     <<<<<<         ",
"             666666666666                  222222      222222         ",
"               56666666                     44444      44444          ",
"                                                                      ",
"                                                                      ",
"                                                                      ",
"                                                                      ",
"                                                                      ",
"                                                                      ",
"                                                                      ",
"                                                                      ",
"                                                                      ",
"                                                                      ",
"                                                                      ",
"                                                                      ",
"                                                                      ",
"                                                                      ",
"                                                                      ",
"                                                                      ",
"                                                                      ",
"                                                                      ",
"                                                                      ",
"                                                                      "
};
