/* XPM */
static char *_85b226e86334cb1e2a60d6b87074081r7fuoGq3L2zCF5gZ[] = {
/* columns rows colors chars-per-pixel */
"69 71 83 1 ",
"  c None",
". c #5C9785",
"X c #5E9A88",
"o c #619E8B",
"O c #64A18E",
"+ c #67A592",
"@ c #6AA895",
"# c #6DAC98",
"$ c #70AF9C",
"% c #73B39F",
"& c #76B6A2",
"* c #79BAA6",
"= c #7CBDA9",
"- c #6FC3A9",
"; c #6FC4A8",
": c #6FC4A9",
"> c #7FC1AC",
", c #78C7AE",
"< c #82C4B0",
"1 c #81CBB3",
"2 c #85C8B3",
"3 c #88CBB6",
"4 c #8ACFB9",
"5 c #8BCFBA",
"6 c #8CCFBB",
"7 c #8CD0BB",
"8 c #8DD0BB",
"9 c #8ED0BC",
"0 c #8FD0BC",
"q c #8FD1BC",
"w c #90D1BD",
"e c #91D2BD",
"r c #92D2BE",
"t c #93D2BE",
"y c #93D3BE",
"u c #93D2BF",
"i c #94D3BF",
"p c #95D3C0",
"a c #96D3C0",
"s c #96D4C0",
"d c #97D4C1",
"f c #98D4C1",
"g c #98D5C1",
"h c #99D5C2",
"j c #9BD5C3",
"k c #9AD6C3",
"l c #9CD6C3",
"z c #9CD7C4",
"x c #9ED7C5",
"c c #9ED7C6",
"v c #9FD8C5",
"b c #A0D8C6",
"n c #A0D9C6",
"m c #A2D9C8",
"M c #A5DAC9",
"N c #A8DBCB",
"B c #AEDDCE",
"V c #ADDECE",
"C c #AFDECF",
"Z c #B1DFD1",
"A c #B6E1D3",
"S c #B7E1D4",
"D c #BBE4D8",
"F c #BDE4D8",
"G c #C0E5D9",
"H c #C5E7DC",
"J c #C9E8DE",
"K c #CCEAE0",
"L c #D2ECE4",
"P c #D3EDE5",
"I c #DAF0E9",
"U c #DBF0E9",
"Y c #E2F3ED",
"T c #E4F3EE",
"R c #E9F5F1",
"E c #E9F6F2",
"W c #EDF7F4",
"Q c #F0F9F6",
"! c #F5FAF8",
"~ c #F6FBF8",
"^ c #F6FBF9",
"/ c #F7FCFA",
"( c white",
/* pixels */
"                              (((((((((((((                          ",
"                          (((((((((((((((((((((                      ",
"                       (((((((((((((((((((((((((((                   ",
"                     (((((((((((((((((((((((((((((((                 ",
"                   ((((((((((((((((((((((((((((((((((                ",
"                  ((((((((((((            (((((((((((((              ",
"                (((((((((((                   ((((((((((             ",
"               (((((((((                         (((((((((           ",
"              ((((((((                            (((((((((          ",
"             ((((((((          xr755557rix          ((((((((         ",
"            (((((((          755555555555555r        ((((((((        ",
"           (((((((        m55555555555555555559        ((((((        ",
"          (((((((        r5555555555555555555799a       ((((((       ",
"          ((((((        7555555555555555555rjjjjjxD      ((((((      ",
"         ((((((       j5555555555555555557jjjjjjjjjV      ((((((     ",
"        (((((((      j5555555555555555555jjjjjjjjjjjZ     ((((((     ",
"        ((((((      x5555555555555555555sjjjjjjjjjjjjD     ((((((    ",
"       ((((((       5555555555555555555rjjjjjjjjjjjjjx      (((((    ",
"       (((((       75555555555555555556jjjjjjjjjjjjjjjv     ((((((   ",
"      ((((((      i5555555555555555555rjjjjjjjjjjjjjjjjD     ((((((  ",
"      (((((       55555555555555555555ajjjjjjjjjjjjjjjjv     ((((((  ",
"     ((((((      j55555555555555555555sjjjjjjjjjjjjjjjjjD     (((((  ",
"     ((((((      555555555555555555555sjjjjjjjjjjjjjjjjjx     (((((( ",
"     (((((       555555555555555555577sjjjjjjjjjjjjjjjjjj      ((((( ",
"     (((((      i555555555555555555555rjjjjjjjjjjjjjjjjjjj     ((((( ",
"    ((((((      75555555555555555555556jjjjjjjjjjjjjjjjji7     ((((( ",
"    (((((       55555555555555555555555rjjjjjjjjjjjjjjjj65     ((((((",
"    (((((      m555555555555555555555555sjjjjjjjjjjjjjjr55      (((((",
"    (((((      r5555555555555555555555555sjjjjjjjjjjjjr555x     (((((",
"    (((((      555555555555555555555555555ijjjjjjjjjjr5555x     (((((",
"    (((((      55555555555555555555555555559sjjjjjji755555x     (((((",
"    (((((     j5555555555555555555555555555556999957555555x     (((((",
"    (((((     95555555555555555555555555555555555555555555x     (((((",
"    (((((     55555555555555555555555555555555555555555555      (((((",
"    (((((     55555555555555555555555555555555555555555555      (((((",
"    (((((    i555555555555555<>255555555555555555555555557      (((((",
"    (((((    75555555555555%o...O<55555555555555555555555j      (((((",
"    (((((    5555555555555#.......>5555555555555555555555      ((((((",
"    (((((   x555555555555=........+5555555555555555555555      ((((( ",
"     ((((^ j7555555555555$.........<555555555555555555559      ((((( ",
"     ((((Q555555555555555+.........>555555553>=%%*355555j      ((((( ",
"     (((((N55555555555555$.........25555555<o.....O<5555      (((((( ",
"     E((((P555555555555552........O55555555o.......+5555      (((((  ",
"    -M((((/r55555555555555$.......<5555555&.........<55r      (((((  ",
"   ::,(((((H555555555555555$...o@>55555555#.........&55j     ((((((  ",
"   :::J((((/r5555555555555552>>55555555555+.........%55      (((((   ",
"  ::::1(((((U55555555555555555555555555555&.........<55     ((((((   ",
"  :::::J(((((N55555555555555555555555555553O.......O55r     (((((    ",
" -::::: (((((/r5555555555555555555555555555<X.....X<55j    ((((((    ",
" :::::   (((((E555555555555555555555555555552#++$%25555x  ((((((     ",
"-:::::   ^(((((P5555555555555555555555555555555555555555j(((((((     ",
"-::::    r^(((((P55555555555555555*@+*555555555555555555P((((((      ",
":::::    :M((((((Yr55555555555555>...X3555555555555555rY((((((       ",
"::::-    -:S((((((Er5555555555555@....>55555555555555jE((((((        ",
" ::-     :::J((((((EN555555555555#....25555555555555V/((((((         ",
"         ::::S(((((((H555555555553@.X=555555555555rK((((((^v         ",
"         :::::M(((((((YN5555555555555555555555555VQ((((((^5:         ",
"        -::::::M((((((((UN555555555555555555555AE(((((((W5::-        ",
"        ::::::::5T((((((((QAj555555555555555bK/((((((((J,:::-        ",
"        :::::::::,J((((((((((QPFNNNNNNNNVHU/(((((((((( ::::::        ",
"        :::::::::::rW((((((((((((((((((((((((((((((((   :::::        ",
"        ::::::::::::,V^(((((((((((((((((((((((((((U     -::::        ",
"       :::::::::::::::,MT(((((((((((((((((((((((Jr:     :::::        ",
"       :::::::::::-::::::5ST((((((((((((((((^Pl,:::     -::::        ",
"       :::::::::-  :::::::::,rSPUUUUUUUUUGM5:::::::     :::::        ",
"       :::::::::     ::::::::::::::::::::::::::::::     :::::        ",
"       ::::::::-        :::::::::::::::::::::::::::     :::::        ",
"      ::::::::::           ::::::::::::::::::::::::     ::::         ",
"      :::::::::                 -:::::::  :::::::::     -:::         ",
"      :::::::::                           -::::::::                  ",
"      ::::::::                            :::::::::                  "
};
