/* XPM */
static char *result[] = {
/* columns rows colors chars-per-pixel */
"32 32 176 2 ",
"   c #396556",
".  c #417363",
"X  c #427564",
"o  c #4B8472",
"O  c #4B8673",
"+  c #52927E",
"@  c #53937E",
"#  c #5C9785",
"$  c #5C9885",
"%  c #5D9886",
"&  c #5E9987",
"*  c #609C8A",
"=  c #5FA890",
"-  c #63A08D",
";  c #68A592",
":  c #69A694",
">  c #69A794",
",  c #63AE96",
"<  c #6AA995",
"1  c #6AA996",
"2  c #6BA996",
"3  c #6CAA97",
"4  c #6DAB98",
"5  c #6DAC98",
"6  c #71B09D",
"7  c #72B29E",
"8  c #69B9A0",
"9  c #69BEA2",
"0  c #6BBEA4",
"q  c #6CBFA4",
"w  c #6CBFA5",
"e  c #77B7A4",
"r  c #78B9A5",
"t  c #79B9A5",
"y  c #7BBCA8",
"u  c #7CBEAA",
"i  c #7DBFAA",
"p  c #7EBFAB",
"a  c #6BC2A7",
"s  c #6DC1A6",
"d  c #6DC1A7",
"f  c #6EC2A7",
"g  c #6DC3A8",
"h  c #6EC4A9",
"j  c #6FC4A9",
"k  c #6FC5A9",
"l  c #6FC5AA",
"z  c #70C4A9",
"x  c #70C5AA",
"c  c #71C5AA",
"v  c #72C5AB",
"b  c #70C6AB",
"n  c #73C6AB",
"m  c #71C7AC",
"M  c #75C6AC",
"N  c #76C7AD",
"B  c #77C7AE",
"V  c #7FC1AD",
"C  c #71C8AC",
"Z  c #72CAAE",
"A  c #73CAAF",
"S  c #73CBAF",
"D  c #73CCAF",
"F  c #78C8AE",
"G  c #79C8AE",
"H  c #79C8AF",
"J  c #7AC8AF",
"K  c #7AC9AF",
"L  c #7AC9B0",
"P  c #7CCAB1",
"I  c #7DCAB1",
"U  c #7ECAB1",
"Y  c #80C1AD",
"T  c #81C4AF",
"R  c #82C4B0",
"E  c #82C5B1",
"W  c #83C6B1",
"Q  c #84C6B2",
"!  c #84C7B2",
"~  c #85C8B4",
"^  c #87CAB5",
"/  c #83CCB5",
"(  c #87CEB7",
")  c #89CDB8",
"_  c #89CEB9",
"`  c #8ACEB9",
"'  c #8BCEB9",
"]  c #8ACFB9",
"[  c #8ACFBA",
"{  c #8BCFBA",
"}  c #8CCFBA",
"|  c #8CCFBB",
" . c #8CD0BB",
".. c #8DD0BB",
"X. c #8ED0BB",
"o. c #8ED0BC",
"O. c #8ED1BC",
"+. c #8FD1BC",
"@. c #90D1BD",
"#. c #90D2BD",
"$. c #91D2BD",
"%. c #91D2BE",
"&. c #92D2BE",
"*. c #92D3BE",
"=. c #93D3BF",
"-. c #95D3C0",
";. c #96D4C0",
":. c #97D4C1",
">. c #98D5C2",
",. c #99D5C2",
"<. c #9AD5C2",
"1. c #99D6C2",
"2. c #99D6C3",
"3. c #9AD6C3",
"4. c #9DD6C4",
"5. c #9FD8C6",
"6. c #A0D7C6",
"7. c #A0D8C6",
"8. c #A0D9C7",
"9. c #A3D9C9",
"0. c #A5DAC9",
"q. c #A6DACA",
"w. c #A7DACA",
"e. c #A9DCCC",
"r. c #AADCCC",
"t. c #AEDECF",
"y. c #B6E1D4",
"u. c #BAE3D6",
"i. c #BBE3D7",
"p. c #BCE3D7",
"a. c #BDE4D8",
"s. c #BFE4D9",
"d. c #BEE5D9",
"f. c #BFE5D9",
"g. c #C3C3C3",
"h. c gray77",
"j. c gray80",
"k. c #CDCDCD",
"l. c #D5D5D5",
"z. c #D7D7D7",
"x. c #D8D8D8",
"c. c gray85",
"v. c #C2E5DA",
"b. c #C2E6DB",
"n. c #C3E6DB",
"m. c #C6E7DD",
"M. c #C7E8DD",
"N. c #C8E8DE",
"B. c #C9E9DF",
"V. c #CAE9E0",
"C. c #D1ECE3",
"Z. c #D5EEE6",
"A. c #E1F3ED",
"S. c #E4F4EF",
"D. c #E5F4EF",
"F. c #E5F5F0",
"G. c #E6F5F0",
"H. c #E8F6F2",
"J. c #E9F6F2",
"K. c #EBF7F3",
"L. c #EFF9F6",
"P. c #F1F1F1",
"I. c gray95",
"U. c #F3F3F3",
"Y. c #F0F9F6",
"T. c #F1F9F7",
"R. c #F6FBF9",
"E. c #F8FCFB",
"W. c #FAFDFC",
"Q. c #FDFDFD",
"!. c #FCFEFD",
"~. c #FDFEFE",
"^. c #FEFFFE",
"/. c #FEFFFF",
"(. c white",
"). c None",
/* pixels */
").).).).).).).).).).).).l.(.(.(.(.(.(.z.).).).).).).).).).).).).",
").).).).).).).).U.(.(.(.(.(.(.(.(.(.(.(.(.(.(.U.).).).).).).).).",
").).).).).).P.(.(.(.(.).).).).).).).).).).(.(.(.(.P.).).).).).).",
").).).).).(.(.(.(.).).b.q.&.[ ] ] ] @.0.s.).).).(.(.(.Q.).).).).",
").).).x.(.(.(.).).a.X.{ { { { { { { { | #.%.d.).).(.(.(.c.).).).",
").).j.(.(.(.).).7.{ { { { { { { { { *.3.3.3.3.e.).).).(.(.(.).).",
").).(.(.(.).).-.{ { { { { { { { { =.3.3.3.3.3.3.8.).).).(.(.g.).",
").(.(.(.).).6.{ { { { { { { { {  .,.3.3.3.3.3.3.3.r.).).(.(.(.).",
").(.(.).).).` { { { { { { { { { | >.3.3.3.3.3.3.3.2.).).).(.(.I.",
"(.(.(.).).a.{ { { { { { { { { { { $.3.3.3.3.3.3.3.;.p.).).(.(.(.",
"(.(.(.).).i.{ { { { { { { { { { { { O.:.3.3.3.,.*.} u.).).(.(.(.",
"(.(.(.).).i.{ { { { { { { { { { { { { {  .o...{ { { u.).).).(.(.",
"(.(.(.).).i.{ { { { ^ T W { { { { { { ! R ~ { { { { u.).).(.(.(.",
"(.(.(.).).i.{ { { i % # # 5 ' { { { 7 # # # r { { { u.).).(.(.(.",
").(.(.).).i.{ { ` ; # # # % W { { ^ * # # # - ) { { u.).).(.(.U.",
").(.(.(.).i.{ { { u & # # 3 ` { { } 6 $ # % e { { { u.).(.(.(.).",
").).(.(.(.i.{ { { { ^ Y E  .{ { { {  .Q V ~ { { { { u.).(.(.h.).",
").).k.(.(.V._ { { { { { V 1 )  . .{ 4 p { { { { { [ f.(.(.(.).).",
").).).c.(.(.Z.-.{ { { { { y : < 2 > t { { { { { ..v.!.(.(.).).).",
").).).).B.!.(.R.y.+.{ { { { { { { { { { { { { t.J.(.(.C.).).).).",
").).b l j +.D.(.(.R.N.9.&.[ ] ] ] ] [ $.5.n.T.(.(.H.<.j l m ).).",
").D j j k j c 1.A.~.(.(.W.Y.G.F.F.D.L.E.(.(.^.S.4.n k k j j 9 ).",
").j j d ).o j j g / q.m.K./.(.(.(.(.(.K.M.w.( j j j O ).s j k ).",
").j k ).).. j j j j j h a z N N N N z a h v I U N j X ).).f j ).",
").j l ).).. j j j j j j j j j j j j j j j x F H v j X ).).q j   ",
").+ ).).).).j j j j j j j j j c G K B j z M n j j j ).).).).@ ).",
").).).).).).0 j j j j j j j j F I I U n x L N j j w ).).).).).).",
").).).).).).).Z j j j j j j j c J P F z j j j j A ).).).).).).).",
").).).).).).).S j j j j j j j j j j j j j j j j S ).).).).).).).",
").).).).).).).S j j j 8 ).).).).).).).)., j j j S ).).).).).).).",
").).).).).).).S j j j = ).).).).).).).).).j j j S ).).).).).).).",
").).).).).).).S j j b ).).).).).).).).).).C j j S ).).).).).).)."
};
