/* XPM */
static char *_7a557ee78754882867e38e26f8db75bf8jn38zie13kvNY7[] = {
/* columns rows colors chars-per-pixel */
"66 92 87 1 ",
"  c None",
". c #5C9785",
"X c #5E9A88",
"o c #619E8B",
"O c #64A18E",
"+ c #67A592",
"@ c #6AA895",
"# c #6DAC98",
"$ c #70AF9C",
"% c #73B39F",
"& c #76B6A2",
"* c #79BAA6",
"= c #7CBDA9",
"- c #6FC3A9",
"; c #6FC4A8",
": c #6FC4A9",
"> c #71C5AA",
", c #72C5AB",
"< c #74C6AC",
"1 c #75C6AC",
"2 c #76C7AD",
"3 c #77C7AE",
"4 c #7FC1AC",
"5 c #78C7AE",
"6 c #78C8AE",
"7 c #79C8AE",
"8 c #79C8AF",
"9 c #7AC8AF",
"0 c #7BC9B0",
"q c #7CC9B0",
"w c #7DCAB1",
"e c #82C4B0",
"r c #81CBB3",
"t c #85C8B3",
"y c #88CBB6",
"u c #8ACFB9",
"i c #8BCFBA",
"p c #8CCFBB",
"a c #8CD0BB",
"s c #8DD0BB",
"d c #8FD0BC",
"f c #8FD1BC",
"g c #90D1BD",
"h c #91D2BD",
"j c #92D2BE",
"k c #93D2BE",
"l c #93D2BF",
"z c #94D3BF",
"x c #96D4C0",
"c c #97D4C1",
"v c #98D4C1",
"b c #98D5C1",
"n c #99D5C2",
"m c #9BD5C3",
"M c #9AD6C3",
"N c #9CD6C3",
"B c #9CD7C4",
"V c #9ED7C5",
"C c #9ED7C6",
"Z c #9FD8C6",
"A c #A0D8C6",
"S c #A2D9C8",
"D c #A3D9C8",
"F c #A5DAC9",
"G c #A8DBCB",
"H c #AADCCB",
"J c #AFDECF",
"K c #B1DFD1",
"L c #B6E1D3",
"P c #B7E1D4",
"I c #BDE4D8",
"U c #C0E5D9",
"Y c #C5E7DC",
"T c #C9E8DE",
"R c #CCEAE0",
"E c #D2ECE4",
"W c #D3EDE5",
"Q c #DAF0E9",
"! c #DBF0E9",
"~ c #E2F3ED",
"^ c #E4F3EE",
"/ c #E9F6F2",
"( c #EDF7F4",
") c #F0F9F6",
"_ c #F6FBF9",
"` c #F7FCFA",
"' c white",
/* pixels */
"                            '''''''''                             ",
"                       ''''''''''''''''''''                       ",
"                    '''''''''''''''''''''''''                     ",
"                  '''''''''''''''''''''''''''''                   ",
"                '''''''''''''''''''''''''''''''''                 ",
"              ''''''''''''''         ''''''''''''''               ",
"             '''''''''''                 '''''''''''              ",
"            '''''''''                       ''''''''''            ",
"          '''''''''         Vgggggggv         '''''''''           ",
"          ''''''''      SgiiiiiiiiiiiiigV       ''''''''          ",
"         '''''''      Vaiiiiiiiiiiiiiiiiiiv      ''''''''         ",
"        '''''''      diiiiiiiiiiiiiiiiiiiiia       '''''''        ",
"       '''''''      iiiiiiiiiiiiiiiiiiiiiiiiiv      ''''''        ",
"      '''''''     viiiiiiiiiiiiiiiiiiiipgvvvMMZ      ''''''       ",
"     '''''''     ViiiiiiiiiiiiiiiiiiiigvvvvvMMMS      ''''''      ",
"     ''''''      iiiiiiiiiiiiiiiiiiiigvvvvvvMMMvH     ''''''      ",
"    ''''''      iiiiiiiiiiiiiiiiiiiigMMvMMMMvvvvvK     ''''''     ",
"    ''''''     aiiiiiiiiiiiiiiiiiiiavMMvMMMMvvvvvv      ''''''    ",
"   ''''''     giiiiiiiiiiiiiiiiiiiacMMvvMMMMvvMvvvV     ''''''    ",
"   '''''      iiiiiiiiiiiiiiiiiiiidMMMvvvvMMvvMMvvvK     ''''''   ",
"  ''''''     diiiiiiiiiiiiiiiiiiiigvvvvvvvvvMMMMvvMZ     ''''''   ",
"  '''''     SiiiiiiiiiiiiiiiiiiiiigvvMvvvvvvMMMMvvMML     '''''   ",
" ''''''     giiiiiiiiiiiiiiiiiiiiigvMMMMMMvvMMvvvvvMZ     ''''''  ",
" ''''''     iiiiiiiiiiiiiiiiiiiiiigvMMMMMMMvMvvvvvMMM      '''''  ",
" '''''     SiiiiiiiiiiiiiiiiiiiiiiavvvvvMMMMMMvvvvvvvS     '''''  ",
" '''''     ziiiiiiiiiiiiiiiiiiiiiiivvvvvvvMMMMvvvvvvvz     '''''' ",
" '''''     giiiiiiiiiiiiiiiiiiiiiiigMMvvvvvvMMvvvvvvgg      ''''' ",
"'''''      iiiiiiiiiiiiiiiiiiiiippiicvvvvvvvMMvvMvvvii      ''''' ",
"'''''      iiiiiiiiiiiiiiiiiiiiiiiiiavMMMMMvvvvvMMvdii      ''''' ",
"'''''      iiiiiiiiiiiiiiiiiiiiiiiiiaacMMMvvvvvvMvaaii      ''''' ",
"'''''      iiiiiiiiiiiiiiiiiiiiiiiiiiiagvMMMvvvvgiaaii      ''''' ",
"'''''      iiiiiiiiiiiiiiiiiiiiiiiiiiiiiaggggggiiiaaii      ''''' ",
"'''''      iiiiiiiiiiiiiiiiiiiiiiiiiiiiiiiiiiiiiiiiiii      ''''' ",
"'''''      iiiiiiiiiiiiiiiiiiiiiiiiiiiiiiiiiiiiiiiiiii      ''''' ",
"'''''      iiiiiiiiiiiiiiiiiiiiiiiiiiiiiiiiiiiiiiiiiii      ''''' ",
"'''''      iiiiiiiiiiiiiiiiiiiiiiiiiiiiiiiiiiiiiiiiiii      ''''' ",
"'''''      iiiiiiiiiy%+++@4iiiiiiiiiiit#+++#tiiiiiiiii      ''''' ",
"''''''     iiiiiiiii+......4iiiiiiiiiyX.....Xyiiiiiiii      ''''' ",
" '''''     iiiiiiii%.......Xyiiiiiiii+.......+iiiiiiii      ''''' ",
" '''''     iiiiiiiy.........$iiiiiii=.........=iiiiiii     '''''' ",
" '''''     iiiiiii4.........+iiiiiii%.........%iiiiiii     '''''  ",
" '''''     iiiiiii4.........+iiiiiii%.........%iiiiiii     '''''  ",
" ''''''    iiiiiiiy.........$iiiiiii=.........=iiiiiii    ''''''  ",
"  '''''    iiiiiiii$.......XtiiiiiiiiO.......Oiiiiiiii    ''''''  ",
"  ''''''   iiiiiiiiy+.....X*iiiiiiiiieo.....oeiiiiiiii    '''''   ",
"   '''''   iiiiiiiiii$X..Oeiiiiiiiiiiiy@...@yiiiiiiiii   ''''''   ",
"   ''''''  iiiiiiiiiiiiiiiiiiiiiiiiiiiiiiiiiiiiiiiiiii   '''''    ",
"   ''''''  iiiiiiiiiiiiiiiiiiiiiiiiiiiiiiiiiiiiiiiiiii  ''''''    ",
"    '''''' iiiiiiiiiiiiiit@eiiiiiiiiit@eiiiiiiiiiiiiii ''''''     ",
"     ''''''giiiiiiiiiiiii*.+iiiiiiiii@.&iiiiiiiiiiiiii ''''''     ",
"     ''''''Eiiiiiiiiiiiiiyo.#yiiiiii&.XyiiiiiiiiiiiiiG''''''      ",
"      ''''''EiiiiiiiiiiiiieX..#%%%$X..4iiiiiiiiiiiiiA`'''''       ",
"       ''''''~giiiiiiiiiiiit$.......@eiiiiiiiiiiiiiL`''''''       ",
"       '''''''/giiiiiiiiiiiiie%%%%%eiiiiiiiiiiiiiiL'''''''        ",
"        '''''''/viiiiiiiiiiiiiiiiiiiiiiiiiiiiiiiiI'''''''         ",
"        7^''''''`Giiiiiiiiiiiiiiiiiiiiiiiiiiiiiv/''''''_i         ",
"      ::::T'''''''EgiiiiiiiiiiiiiiiiiiiiiiiiiiL`''''''^5:::       ",
"     ::::::T'''''''`LgiiiiiiiiiiiiiiiiiiiiiiJ/'''''''^5:::::      ",
"     :::::::U_'''''''`RviiiiiiiiiiiiiiiiigI)''''''''U5:::::::     ",
"    :::::::::i('''''''''~YGiiiiiiiiiiiAIQ'''''''''_F:::::::::     ",
"   :::::::::::5T''''''''''''/~~~~~~~~''''''''''''E5:::::::::::    ",
"   :::::::::::::g('''''''''''''''''''''''''''''(N:::::::::::::    ",
"  -::::::: :::::::N^'''''''''''''''''''''''''(F::::::: ::::::::   ",
"  :::::-   :::::::::iT('''''''''''''''''''(Tg:::::::::   ::::::   ",
"  :::::    ::::::::::::gPQ_'''''''''''_QPg:::>>>>:::::    -::::   ",
"  :::::    ::::::::::::::::rgggggggggr::::::>wwww>::::    ::::::  ",
" :::::     :::::::::::::::::::::::::::>:::::wwwwww::::     :::::  ",
" :::::     :::::::::::::::::::::::::::::::::wwwwww::::     :::::  ",
" :::::     :::::::::::::::::::::::::::::::::7wwww7::::     :::::  ",
" :::::     :::::::::::::::::>::::::::::::::::7ww7:::::     :::::  ",
" :::::     :::::::::::::::::::::::::::::::::::>>::::::     :::::  ",
"  ::::     ::::::::::::::::::::::<<<<>::::::::::::::::     :::::  ",
"           -::::::::::::::::::::7wwwww>:::>77<:::::::-            ",
"            :::::::::::::::::::<wwwwww0:::<www>::::::             ",
"            :::::::::::::::::::7wwwwwww>::7www>::::::             ",
"             -:::::::::::::::::7wwwwwww>::>ww<::::::              ",
"              :::::::::::::::::<wwwwwww::::::::::::               ",
"              ::::::::::::::::::wwwwww<::::::::::::               ",
"              ::::::::::::::::::>7www<:::::::::::::               ",
"              :::::::::::::::::::::::::::::::::::::               ",
"              :::::::::::::::::::::::::::::::::::::               ",
"              :::::::::::::::::::::::::::::::::::::               ",
"              ::::::::::  -:::::::::::-  ::::::::::               ",
"              ::::::::::                 ::::::::::               ",
"              :::::::::-                 -:::::::::               ",
"              ::::::::::                  :::::::::               ",
"              :::::::::                   :::::::::               ",
"              :::::::::                   :::::::::               ",
"              :::::::::                   :::::::::               ",
"              :::::::::                   :::::::::               ",
"              :::::::::                    ::::::::               ",
"              ::::::::                     ::::::::               "
};
