/* XPM */
static char *result[] = {
/* columns rows colors chars-per-pixel */
"32 32 125 2 ",
"   c #926336",
".  c #966739",
"X  c #976739",
"o  c #97673A",
"O  c #986839",
"+  c #996839",
"@  c #98683A",
"#  c #99683A",
"$  c #99693A",
"%  c #99683B",
"&  c #9A693A",
"*  c #9A693B",
"=  c #9B6A3A",
"-  c #9A6A3B",
";  c #9B6A3B",
":  c #9C6A3B",
">  c #9D6B3B",
",  c #9B6B3C",
"<  c #9C6B3C",
"1  c #9D6B3C",
"2  c #9D6C3D",
"3  c #9E6C3C",
"4  c #9F6C3C",
"5  c #9F6D3D",
"6  c #A06D3D",
"7  c #A16E3D",
"8  c #A36F3D",
"9  c #A06E3E",
"0  c #A16E3E",
"q  c #A06F3E",
"w  c #A06E3F",
"e  c #A26E3E",
"r  c #A36F3E",
"t  c #A26F3F",
"y  c #A36F3F",
"u  c #A2703F",
"i  c #A3703F",
"p  c #A5703E",
"a  c #A4703F",
"s  c #A6703E",
"d  c #A9733F",
"f  c #AA743F",
"g  c #AB743F",
"h  c #9C6E40",
"j  c #A27040",
"k  c #A37140",
"l  c #A47140",
"z  c #A57140",
"x  c #A57341",
"c  c #A67341",
"v  c #A67342",
"b  c #A77342",
"n  c #A77442",
"m  c #AB7440",
"M  c #A87442",
"N  c #A97443",
"B  c #A87543",
"V  c #A97543",
"C  c #AD7641",
"Z  c #AE7640",
"A  c #AF7740",
"S  c #AF7641",
"D  c #AF7741",
"F  c #A97644",
"G  c #AA7644",
"H  c #AB7644",
"J  c #AB7745",
"K  c #AC7744",
"L  c #AF7841",
"P  c #AD7845",
"I  c #AC7945",
"U  c #AD7946",
"Y  c #AE7946",
"T  c #AF7A46",
"R  c #B07842",
"E  c #B07943",
"W  c #B17943",
"Q  c #B27942",
"!  c #B17A43",
"~  c #B17A44",
"^  c #B27A44",
"/  c #B37B45",
"(  c #B07B46",
")  c #B17B46",
"_  c #B07B47",
"`  c #B17C47",
"'  c #B47C46",
"]  c #B57E47",
"[  c #B07B48",
"{  c #B17C48",
"}  c #B37D48",
"|  c #B27D49",
" . c #B37E48",
".. c #B27E4A",
"X. c #B37E4A",
"o. c #B37F4A",
"O. c #B47E49",
"+. c #B67F48",
"@. c #B57F4A",
"#. c #B47F4B",
"$. c #B78049",
"%. c #B5804B",
"&. c #B6804A",
"*. c #B7804A",
"=. c #B7804B",
"-. c #B7814B",
";. c #B8814A",
":. c #B8814B",
">. c #B9824B",
",. c #BB824A",
"<. c #BA824B",
"1. c #B8814C",
"2. c #B8824C",
"3. c #B9824C",
"4. c #B9834C",
"5. c #BA834C",
"6. c #BA834D",
"7. c #BB834D",
"8. c #BA844D",
"9. c #BB844D",
"0. c #BB854E",
"q. c #BC844D",
"w. c #BF874D",
"e. c #BC854E",
"r. c None",
/* pixels */
"r.r.w.9.9.9.9.9.9.9.9.9.9.9.9.9.9.9.9.9.9.9.9.9.9.9.9.9.9.9.r.r.",
"r.<.^ D Z Z Z Z Z Z Z Z Z Z Z Z Z Z Z Z Z Z Z Z Z Z Z Z D R ' h ",
",.Z Z Z Z Z Z Z Z Z Z Z Z Z Z Z Z Z Z Z Z Z Z Z Z Z Z Z Z Z Z ~ ",
"W Z Z Z Z Z Z Z Z Z Z Z Z Z Z Z Z Z Z Z Z Z Z Z Z Z Z Z Z Z Z Z ",
"D Z Z Z S W ^ ~ p s s s s s s s s s s s s s s p m / ! D Z Z Z Z ",
"Z Z Z Z ;.9.9.9.Y # % % % % % % % % % % % % # 9 :.9.9.5.E Z Z Z ",
"Z Z Z W 9.9.9.9.9.} 0 6 6 6 6 6 6 6 6 6 6 6 N 6.9.9.9.9.*.Z Z Z ",
"Z Z Z ! e.9.9.9.9.9.O.t 6 6 6 6 6 6 6 6 6 G 8.9.9.9.9.9.>.Z Z Z ",
"Z Z Z ! e.9.9.9.9.9.9.&.a 6 6 6 6 6 6 6 P 9.9.9.9.9.9.9.>.Z Z Z ",
"Z Z Z W 0.9.9.9.9.9.9.9.:.z 6 6 6 6 0 T 9.9.9.9.9.9.9.9.:.Z Z Z ",
"Z Z Z d J 9.9.9.9.9.9.9.9.4.b 6 6 0 ` 9.9.9.9.9.9.9.9.-.u A Z Z ",
"Z Z Z f X n 9.9.9.9.9.9.9.9.5.V 0 O.9.9.9.9.9.9.9.9.&.- 4 A Z Z ",
"Z Z Z g 5 O l 9.9.9.9.9.9.9.9.6.1.9.9.9.9.9.9.9.9. .$ < r A Z Z ",
"Z Z Z g 6 6 O q 5.9.9.9.9.9.9.9.9.9.9.9.9.9.9.9._ X > 6 r A Z Z ",
"Z Z Z g 6 6 6 * 2 2.9.9.9.9.9.9.9.9.9.9.9.9.9.I X 4 6 6 r A Z Z ",
"Z Z Z g 6 6 6 6 ; , &.9.9.9.9.9.9.9.9.9.9.9.B X 5 6 6 6 r A Z Z ",
"Z Z Z g 6 6 6 6 6 : # &.9.9.9.9.9.9.9.9.9.v X 5 6 6 6 6 r A Z Z ",
"Z Z Z g 6 6 6 6 6 6 H 5.9.9.9.9.9.9.9.9.#.[ y 6 6 6 6 6 r A Z Z ",
"Z Z Z g 6 6 6 6 6 T 9.9.9.9.9.9.9.9.7.o.%.9.2.z 6 6 6 6 r A Z Z ",
"Z Z Z g 6 6 6 7 ` 9.9.9.9.9.9.9.9.6.X.-.9.9.9.4.c 6 6 6 r A Z Z ",
"Z Z Z g 6 6 0 } 9.9.9.9.9.9.9.9.6...1.9.9.9.9.9.5.M 6 6 r A Z Z ",
"Z Z Z g 6 e O.9.9.9.9.9.9.9.9.} k -.9.9.9.9.9.9.9.6.N 6 r A Z Z ",
"Z Z Z g t =.9.9.9.9.9.9.9.9.{ X O w 3.9.9.9.9.9.9.9.9.K r A Z Z ",
"Z Z Z C :.9.9.9.9.9.9.9.q.U . 3 6 * 2 :.9.9.9.9.9.9.9.9.) Z Z Z ",
"Z Z Z ! e.9.9.9.9.9.9.e.F X 5 6 6 6 ; - &.9.9.9.9.9.9.9.>.Z Z Z ",
"Z Z Z ! e.9.9.9.9.9.9.x O 6 6 6 6 6 6 > @ @.9.9.9.9.9.9.>.Z Z Z ",
"Z Z Z ! e.9.9.9.9.6.j + 6 6 6 6 6 6 6 6 1 X | 9.9.9.9.9.>.Z Z Z ",
"Z Z Z L 5.9.9.9.3.9 & 6 6 6 6 6 6 6 6 6 6 3 o _ 9.9.9.9.] Z Z Z ",
"Z Z Z Z ^ $.>.;.i > 8 r r r r r r r r r r r 7 = ( >.>.+.D Z Z Z ",
"Z Z Z Z Z Z Z Z A A A A A A A A A A A A A A A A Z Z Z Z Z Z Z Z ",
"r.Z Z Z Z Z Z Z Z Z Z Z Z Z Z Z Z Z Z Z Z Z Z Z Z Z Z Z Z Z Z Q ",
"r.  Z Z Z Z Z Z Z Z Z Z Z Z Z Z Z Z Z Z Z Z Z Z Z Z Z Z Z Z Q r."
};
