/* XPM */
static char *_932f5f09f3d42688c9e864e70bdca1cyZw98PYMrWozqZ7P[] = {
/* columns rows colors chars-per-pixel */
"70 70 69 1 ",
"  c None",
". c #946538",
"X c #966638",
"o c #966639",
"O c #976739",
"+ c #97683A",
"@ c #986839",
"# c #98683A",
"$ c #99683A",
"% c #9A693A",
"& c #9B6A3B",
"* c #9D6B3C",
"= c #9D6C3D",
"- c #9E6C3C",
"; c #9F6C3C",
": c #A06D3D",
"> c #A16E3E",
", c #A2703F",
"< c #A4703F",
"1 c #A57140",
"2 c #A67241",
"3 c #A77442",
"4 c #A87442",
"5 c #AA7543",
"6 c #A97643",
"7 c #AD7540",
"8 c #AE7540",
"9 c #AD7640",
"0 c #AC7641",
"q c #AE7640",
"w c #AF7741",
"e c #AC7845",
"r c #AD7845",
"t c #AD7946",
"y c #AF7946",
"u c #AE7A46",
"i c #B07842",
"p c #B17943",
"a c #B17A44",
"s c #B27B44",
"d c #B07B47",
"f c #B37C45",
"g c #B17C47",
"h c #B47D46",
"j c #B17C48",
"k c #B17D49",
"l c #B27C48",
"z c #B27D49",
"x c #B37E49",
"c c #B47E49",
"v c #B67E48",
"b c #B67F48",
"n c #B77F48",
"m c #B67F49",
"M c #B47F4A",
"N c #B57F4A",
"B c #B78049",
"V c #B6804A",
"C c #B7814B",
"Z c #B8814A",
"A c #B8824B",
"S c #B8824C",
"D c #B9824C",
"F c #BA834C",
"G c #BB834D",
"H c #BA844C",
"J c #BB844C",
"K c #BA844D",
"L c #BB844D",
/* pixels */
"      JJJJJJJJJJJJJJJJJJJJJJJJJJJJJJJJJJJJJJJJJJJJJJJJJJJJJJJJJJ      ",
"    GJJJJJJJJJJJJJJJJJJJJJJJJJJJJJJJJJJJJJJJJJJJJJJJJJJJJJJJJJJJJG    ",
"  JJJnfpppqqqqqqqqqqqqqqqqqqqqqqqqqqqqqqqqqqqqqqqqqqqqqqqqqqpppfnGJJ  ",
" JJhqqqqqqqqqqqqqqqqqqqqqqqqqqqqqqqqqqqqqqqqqqqqqqqqqqqqqqqqqqqqqqhJJ ",
" JpqqqqqqqqqqqqqqqqqqqqqqqqqqqqqqqqqqqqqqqqqqqqqqqqqqqqqqqqqqqqqqqqsG ",
"JsqqqqqqqqqqqqqqqqqqqqqqqqqqqqqqqqqqqqqqqqqqqqqqqqqqqqqqqqqqqqqqqqqqsJ",
"nqqqqqqqqqqqqqqqqqqqqqqqqqqqqqqqqqqqqqqqqqqqqqqqqqqqqqqqqqqqqqqqqqqqqn",
"sqqqqqqqqqqqqqqqqqqqqqqqqqqqqqqqqqqqqqqqqqqqqqqqqqqqqqqqqqqqqqqqqqqqqs",
"sqqqqqqqqqqqqqqqqqqqqqqqqqqqqqqqqqqqqqqqqqqqqqqqqqqqqqqqqqqqqqqqqqqqqq",
"pqqqqqqqqqqqqqqqqqqqqqqqqqqqqqqqqqqqqqqqqqqqqqqqqqqqqqqqqqqqqqqqqqqqqq",
"qqqqqqqqqqfBBBJJZ&..................................&ZJJGBBqqqqqqqqqqq",
"qqqqqqqqqZJJJJJJJJ,................................,ZJJJJJJJhqqqqqqqqq",
"qqqqqqqqsJJJJJJJJJJ5::::::::::::::::::::::::::::::5JJJJJJJJJJqqqqqqqqq",
"qqqqqqqqBJJJJJJJJJJJ5::::::::::::::::::::::::::::eJJJJJJJJJJJnqqqqqqqq",
"qqqqqqqqJJJJJJJJJJJJJs::::::::::::::::::::::::::sJJJJJJJJJJJJJqqqqqqqq",
"qqqqqqqqJJJJJJJJJJJJJJs::::::::::::::::::::::::sJJJJJJJJJJJJJJqqqqqqqq",
"qqqqqqqqJJJJJJJJJJJJJJJn::::::::::::::::::::::nJJJJJJJJJJJJJJJqqqqqqqq",
"qqqqqqqqJJJJJJJJJJJJJJJJn::::::::::::::::::::nJJJJJJJJJJJJJJJJqqqqqqqq",
"qqqqqqqqJJJJJJJJJJJJJJJJJn1::::::::::::::::1CJJJJJJJJJJJJJJJJJqqqqqqqq",
"qqqqqqqqJJJJJJJJJJJJJJJJJJG1::::::::::::::1GJJJJJJJJJJJJJJJJJJqqqqqqqq",
"qqqqqqqqJJJJJJJJJJJJJJJJJJJG1::::::::::::5GJJJJJJJJJJJJJJJJJJJqqqqqqqq",
"qqqqqqqqxJJJJJJJJJJJJJJJJJJJJ5::::::::::5JJJJJJJJJJJJJJJJJJJJxqqqqqqqq",
"qqqqqqqq.eJJJJJJJJJJJJJJJJJJJJ5::::::::5JJJJJJJJJJJJJJJJJJJJe.qqqqqqqq",
"qqqqqqqq..eJJJJJJJJJJJJJJJJJJJJe::::::sJJJJJJJJJJJJJJJJJJJJe..qqqqqqqq",
"qqqqqqqq&..3JJJJJJJJJJJJJJJJJJJJs::::sJJJJJJJJJJJJJJJJJJJJ3..&qqqqqqqq",
"qqqqqqqq:*..,JJJJJJJJJJJJJJJJJJJJx::xJJJJJJJJJJJJJJJJJJJJ,..*:qqqqqqqq",
"qqqqqqqq::*..,ZJJJJJJJJJJJJJJJJJJJnnJJJJJJJJJJJJJJJJJJJZ,..*::qqqqqqqq",
"qqqqqqqq:::-..&ZJJJJJJJJJJJJJJJJJJJJJJJJJJJJJJJJJJJJJJZ&..-:::qqqqqqqq",
"qqqqqqqq::::-..&BJJJJJJJJJJJJJJJJJJJJJJJJJJJJJJJJJJJJB&..-::::qqqqqqqq",
"qqqqqqqq:::::-...xJJJJJJJJJJJJJJJJJJJJJJJJJJJJJJJJJJx...-:::::qqqqqqqq",
"qqqqqqqq:::::::&..xJJJJJJJJJJJJJJJJJJJJJJJJJJJJJJJJx..&:::::::qqqqqqqq",
"qqqqqqqq::::::::&..eJJJJJJJJJJJJJJJJJJJJJJJJJJJJJJe..&::::::::qqqqqqqq",
"qqqqqqqq:::::::::&..eJJJJJJJJJJJJJJJJJJJJJJJJJJJJe..&:::::::::qqqqqqqq",
"qqqqqqqq::::::::::&..,JJJJJJJJJJJJJJJJJJJJJJJJJJ,..&::::::::::qqqqqqqq",
"qqqqqqqq:::::::::::*..,JJJJJJJJJJJJJJJJJJJJJJJJ,..*:::::::::::qqqqqqqq",
"qqqqqqqq::::::::::::*..&GJJJJJJJJJJJJJJJJJJJJZ&..*::::::::::::qqqqqqqq",
"qqqqqqqq:::::::::::::-.&xJJJJJJJJJJJJJJJJJJJGe+.-:::::::::::::qqqqqqqq",
"qqqqqqqq::::::::::::::<ZJJJJJJJJJJJJJJJJJJJGxxx1::::::::::::::qqqqqqqq",
"qqqqqqqq:::::::::::::1GJJJJJJJJJJJJJJJJJJJGxxnGG1:::::::::::::qqqqqqqq",
"qqqqqqqq::::::::::::5JJJJJJJJJJJJJJJJJJJJGxxnJJJJ5::::::::::::qqqqqqqq",
"qqqqqqqq:::::::::::5JJJJJJJJJJJJJJJJJJJJBxxnJJJJJJ5:::::::::::qqqqqqqq",
"qqqqqqqq::::::::::eJJJJJJJJJJJJJJJJJJJJBxxBJJJJJJJJe::::::::::qqqqqqqq",
"qqqqqqqq:::::::::sJJJJJJJJJJJJJJJJJJJJnxxBJJJJJJJJJJs:::::::::qqqqqqqq",
"qqqqqqqq::::::::sJJJJJJJJJJJJJJJJJJJJnxxCJJJJJJJJJJJJs::::::::qqqqqqqq",
"qqqqqqqq:::::::nJJJJJJJJJJJJJJJJJJJGnxxGJJJJJJJJJJJJJJn:::::::qqqqqqqq",
"qqqqqqqq::::::nJJJJJJJJJJJJJJJJJJJZxxxGJJJJJJJJJJJJJJJJn::::::qqqqqqqq",
"qqqqqqqq:::::nJJJJJJJJJJJJJJJJJJJB&+eGJJJJJJJJJJJJJJJJJJn:::::qqqqqqqq",
"qqqqqqqq:::1GJJJJJJJJJJJJJJJJJJJx....xJJJJJJJJJJJJJJJJJJJG1:::qqqqqqqq",
"qqqqqqqq::1GJJJJJJJJJJJJJJJJJJJx..&&..eJJJJJJJJJJJJJJJJJJJG1::qqqqqqqq",
"qqqqqqqq:1GJJJJJJJJJJJJJJJJJJJe..&::&..eJJJJJJJJJJJJJJJJJJJG1:qqqqqqqq",
"qqqqqqqq5JJJJJJJJJJJJJJJJJJJJe..&::::&..5JJJJJJJJJJJJJJJJJJJJ5qqqqqqqq",
"qqqqqqqqJJJJJJJJJJJJJJJJJJJJ3..&::::::&..1JJJJJJJJJJJJJJJJJJJJqqqqqqqq",
"qqqqqqqqJJJJJJJJJJJJJJJJJJJ,..*::::::::*..,JJJJJJJJJJJJJJJJJJJqqqqqqqq",
"qqqqqqqqJJJJJJJJJJJJJJJJJJ,..*::::::::::*..-ZJJJJJJJJJJJJJJJJJqqqqqqqq",
"qqqqqqqqJJJJJJJJJJJJJJJJG&..-::::::::::::-..&ZJJJJJJJJJJJJJJJJqqqqqqqq",
"qqqqqqqqJJJJJJJJJJJJJJJZ&..-::::::::::::::-..&BJJJJJJJJJJJJJJJqqqqqqqq",
"qqqqqqqqJJJJJJJJJJJJJJx&.&-::::::::::::::::-&..xJJJJJJJJJJJJJJqqqqqqqq",
"qqqqqqqqJJJJJJJJJJJJJx..&::::::::::::::::::::&..xJJJJJJJJJJJJJqqqqqqqq",
"qqqqqqqqZJJJJJJJJJJJe..&::::::::::::::::::::::&..eJJJJJJJJJJJZqqqqqqqq",
"qqqqqqqqfJJJJJJJJJJe..&::::::::::::::::::::::::&..eJJJJJJJJJJfqqqqqqqq",
"qqqqqqqqqZJJJJJJJJe..&::::::::::::::::::::::::::&..5JJJJJJJJZqqqqqqqqq",
"qqqqqqqqqqhBGJJJJ,..*::::::::::::::::::::::::::::*..,JJJJJGhqqqqqqqqqq",
"qqqqqqqqqqqqqqqqqqqqqqqqqqqqqqqqqqqqqqqqqqqqqqqqqqqqqqqqqqqqqqqqqqqqqq",
"qqqqqqqqqqqqqqqqqqqqqqqqqqqqqqqqqqqqqqqqqqqqqqqqqqqqqqqqqqqqqqqqqqqqqq",
" qqqqqqqqqqqqqqqqqqqqqqqqqqqqqqqqqqqqqqqqqqqqqqqqqqqqqqqqqqqqqqqqqqqq ",
" qqqqqqqqqqqqqqqqqqqqqqqqqqqqqqqqqqqqqqqqqqqqqqqqqqqqqqqqqqqqqqqqqqqq ",
" qqqqqqqqqqqqqqqqqqqqqqqqqqqqqqqqqqqqqqqqqqqqqqqqqqqqqqqqqqqqqqqqqqq  ",
"  qqqqqqqqqqqqqqqqqqqqqqqqqqqqqqqqqqqqqqqqqqqqqqqqqqqqqqqqqqqqqqqqqq  ",
"    qqqqqqqqqqqqqqqqqqqqqqqqqqqqqqqqqqqqqqqqqqqqqqqqqqqqqqqqqqqqqq    ",
"     qqqqqqqqqqqqqqqqqqqqqqqqqqqqqqqqqqqqqqqqqqqqqqqqqqqqqqqqqqq      "
};
