/* XPM */
static char *result[] = {
/* columns rows colors chars-per-pixel */
"32 32 163 2 ",
"   c #684E33",
".  c #6B5138",
"X  c #A4703F",
"o  c #A5703F",
"O  c #A4713F",
"+  c #A6713E",
"@  c #A6713F",
"#  c #A7723E",
"$  c #A8723E",
"%  c #A9723E",
"&  c #A8723F",
"*  c #A9733F",
"=  c #AA733F",
"-  c #A9743E",
";  c #AB743F",
":  c #AD743D",
">  c #AD753E",
",  c #AC753F",
"<  c #AE753F",
"1  c #AE763F",
"2  c #A37141",
"3  c #A47040",
"4  c #A47140",
"5  c #A57140",
"6  c #AB7440",
"7  c #AB7541",
"8  c #A87443",
"9  c #AC7540",
"0  c #AD7540",
"q  c #AE7640",
"w  c #AF7640",
"e  c #AF7740",
"r  c #AE7741",
"t  c #AF7741",
"y  c #AF7742",
"u  c #A87646",
"i  c #AA7746",
"p  c #AF7842",
"a  c #AF7843",
"s  c #AF7B47",
"d  c #AA7848",
"f  c #AA784A",
"g  c #AC7C4E",
"h  c #B07741",
"j  c #B07842",
"k  c #B07943",
"l  c #B17943",
"z  c #B57C43",
"x  c #B07944",
"c  c #B17A45",
"v  c #B17A46",
"b  c #B17B46",
"n  c #B27C47",
"m  c #B67E47",
"M  c #B17C49",
"N  c #B27C48",
"B  c #B27E48",
"V  c #B37E4A",
"C  c #B67E48",
"Z  c #B47F4C",
"A  c #AD7F51",
"S  c #B4804D",
"D  c #B5804D",
"F  c #B5814E",
"G  c #B88049",
"H  c #BB824A",
"J  c #BE854D",
"K  c #BF854D",
"L  c #BF864D",
"P  c #A5805D",
"I  c #B48150",
"U  c #B58150",
"Y  c #B68350",
"T  c #B78351",
"R  c #B58353",
"E  c #B68352",
"W  c #B78452",
"Q  c #B38355",
"!  c #B88453",
"~  c #B88654",
"^  c #B98756",
"/  c #B7875A",
"(  c #B5875C",
")  c #B98858",
"_  c #BA8858",
"`  c #BB8959",
"'  c #BB8A5A",
"]  c #BC8C5D",
"[  c #BD8D5E",
"{  c #B88C61",
"}  c #BA8C61",
"|  c #B98C62",
" . c #BA8D63",
".. c #BF8F61",
"X. c #BB8F66",
"o. c #BB9066",
"O. c #BF946C",
"+. c #BF956C",
"@. c #C0874E",
"#. c #C3894F",
"$. c #C59260",
"%. c #C09164",
"&. c #C19367",
"*. c #C79565",
"=. c #C39568",
"-. c #C4976C",
";. c #C5996E",
":. c #C99869",
">. c #C9996A",
",. c #CA9A6C",
"<. c #CA9A6D",
"1. c #CB9C6F",
"2. c #C29870",
"3. c #C39971",
"4. c #C79B71",
"5. c #C49B73",
"6. c #C69D75",
"7. c #C69D76",
"8. c #C79E77",
"9. c #C99D74",
"0. c #C89E76",
"q. c #C99F77",
"w. c #CA9F77",
"e. c #C8A079",
"r. c #CAA078",
"t. c #CBA179",
"y. c #CEA47B",
"u. c #CBA37D",
"i. c #CDA37C",
"p. c #CDA47C",
"a. c #CDA47D",
"s. c #CDA47E",
"d. c #CDA580",
"f. c #CEA680",
"g. c #CEA781",
"h. c #CEA682",
"j. c #CFA782",
"k. c #CFA883",
"l. c #CFA983",
"z. c #CFA884",
"x. c #D0A782",
"c. c #D0A882",
"v. c #D0A883",
"b. c #D0A983",
"n. c #D0A984",
"m. c #D1AA84",
"M. c #D1AA85",
"N. c #D1AB86",
"B. c #D1AB87",
"V. c #D2AB87",
"C. c #D8AF87",
"Z. c #D2AC88",
"A. c #D3AC88",
"S. c #D2AD88",
"D. c #D3AD88",
"F. c #D3AD89",
"G. c #D3AD8A",
"H. c #D3AE8A",
"J. c #D4AE8A",
"K. c #D4AE8B",
"L. c #D4AF8B",
"P. c #D7B08B",
"I. c None",
/* pixels */
"I.I.I.I.I.I.I.I.I.I.I.I.I.I.I.A.A.P.I.I.I.I.I.I.I.I.I.I.I.I.I.I.",
"I.I.I.I.I.I.I.I.I.I.I.I.I.I.y.<.,.1.C.I.I.I.I.I.I.I.I.I.I.I.I.I.",
"I.I.I.I.I.I.I.I.I.I.I.I.I.P *.*.*.*.>.I.I.I.I.I.I.I.I.I.I.I.I.I.",
"I.I.#.L J J J J J J J J J H G G G G G H J J J J J J J J K @.B I.",
"I.m j t q q q q q q q q q q q q q q q q q q q q q q q q q t l s ",
"C q q q q q q q q q q q q q q q q q q q q q q q q q q q q q q j ",
"j q q q q q q q q q q q q q q q q q q 0 ; * 0 q q q q q q q q q ",
"t q q q 6 o X 3 4 2 7 q # , q q & , q d A ( s $ + @ o 5 9 q q q ",
"q q q q E 6.e.u.h.N.U O X.f 0 *  .g % r.K.L.)  .O.3.7.u.Y q q q ",
"q q q q ` J.F.F.J.S.R 7.H.d.u | J.B./ q.F.Z.] H.F.F.F.Z.F q q q ",
"q q q q ` J.F.e.+.&.S f.F.F.k.F.F.F.' q.F.Z.[ V.D.F.M.-.c q q q ",
"q q q q ` J.F.M.g.F q Z v.F.F.F.G...1 0.F.B.D a l.F.i.: q q q q ",
"q q q q ~ F.F.z.u.i 9 q Q F.F.F.5.& 1 0.F.m.N t b.F.p.> q q q q ",
"q q q q W A.F.3.o.2.M 8 u.F.F.F.G.{ $ 0.F.m.N x m.F.p.> q q q q ",
"q q q q W A.F.F.F.L.I 8.F.F.4.j.F.J.} 0.F.c.v x m.F.p.> q q q q ",
"q q q q W G.K.L.F.F.` v.F.x.k ! V.J.=.q.n.t.a N M.F.a.> q q q q ",
"q q q q b ` ^ T D Z y V s._ q q ..;.r V n p q N w.9.%.< q q q q ",
"q q q q q q q q q q q q x q q q t t q q q q q q r < < q q q q q ",
"q q q q q q q q q q q q q q q q q q q q q q q q q q q q q q q q ",
"I.q q q q q q q q q q q q q q q q q q q q q q q q q q q q q q w ",
"I.= h h h h h h h h h h h e q q q q q e h h h h h h h h h h 0 I.",
"I.I.I.I.I.I.I.I.I.I.I.I.I.- z z z z z I.I.I.I.I.I.I.I.I.I.I.I.I.",
"I.I.I.I.I.I.I.I.I.I.I.I.I.  $.$.$.$.$.I.I.I.I.I.I.I.I.I.I.I.I.I.",
"I.I.I.I.I.I.I.I.I.I.I.I.I.. :.:.:.:.:.I.I.I.I.I.I.I.I.I.I.I.I.I.",
"I.I.I.I.I.I.I.I.I.I.I.I.I.. :.:.:.:.:.I.I.I.I.I.I.I.I.I.I.I.I.I.",
"I.I.I.I.I.I.I.I.I.I.I.I.I.. :.:.:.:.:.I.I.I.I.I.I.I.I.I.I.I.I.I.",
"I.I.I.I.I.I.I.I.I.I.I.I.I.. :.:.:.:.:.I.I.I.I.I.I.I.I.I.I.I.I.I.",
"I.I.I.I.I.I.I.I.I.I.I.I.I.. :.:.:.:.:.I.I.I.I.I.I.I.I.I.I.I.I.I.",
"I.I.I.I.I.I.I.I.I.I.I.I.I.. :.:.:.:.:.I.I.I.I.I.I.I.I.I.I.I.I.I.",
"I.I.I.I.I.I.I.I.I.I.I.I.I.. :.:.:.:.:.I.I.I.I.I.I.I.I.I.I.I.I.I.",
"I.I.I.I.I.I.I.I.I.I.I.I.I.. :.:.:.:.:.I.I.I.I.I.I.I.I.I.I.I.I.I.",
"I.I.I.I.I.I.I.I.I.I.I.I.I.. :.:.:.:.:.I.I.I.I.I.I.I.I.I.I.I.I.I."
};
