/* XPM */
static char *result[] = {
/* columns rows colors chars-per-pixel */
"32 32 73 1 ",
"  c #A28A00",
". c #A28B08",
"X c #B89400",
"o c #A28D17",
"O c #D7AD00",
"+ c #DBB600",
"@ c #DEB800",
"# c #E2B501",
"$ c #E2B600",
"% c #E6B801",
"& c #E7BA01",
"* c #E4BE00",
"= c #E8B901",
"- c #EDBD01",
"; c #EDBE01",
": c #F2C200",
"> c #F3C200",
", c #F5C400",
"< c #F7C500",
"1 c #F8C600",
"2 c #F8C700",
"3 c #FECB00",
"4 c #FBCD00",
"5 c #FBCE00",
"6 c #FECC00",
"7 c #FFCC00",
"8 c #FFCD00",
"9 c #FFCC01",
"0 c #FCCF00",
"q c #FFCE00",
"w c #FFCF00",
"e c #FFCC02",
"r c #FFCC03",
"t c #FFCD03",
"y c #FFCF02",
"u c #FFCD04",
"i c #FFCD07",
"p c #FFCD08",
"a c #FFD000",
"s c #FCD200",
"d c #FDD200",
"f c #FFD200",
"g c #FFD300",
"h c #FFD602",
"j c #FFD008",
"k c #FFD41C",
"l c #FFD91F",
"z c #FFD221",
"x c #FFD520",
"c c #FFD325",
"v c #FFD327",
"b c #FFD428",
"n c #FFD42B",
"m c #FFD637",
"M c #FED83F",
"N c #DDC64C",
"B c #D7C558",
"V c #E4C64C",
"C c #FCD643",
"Z c #FED840",
"A c #FED842",
"S c #FFD942",
"D c #F1D34B",
"F c #FED94A",
"G c #FEDA4A",
"H c #EED150",
"J c #FBDB51",
"K c #F2DD59",
"L c #F5DE70",
"P c #FEE168",
"I c #FEE269",
"U c #FBE273",
"Y c None",
/* pixels */
"YYYYYYYYYYYYYYYYYYYYYYYYYYYYYYYY",
"YYYYYYYYYYYYYYYYYYYYYYYYYYYYYYYY",
"YYYYYYYYYYYYYYYYYYYYYYYYYYYYYYYY",
"YYYYYYYYYYYYYYYYYYYYYYYYYYYYYYYY",
"YYYYYYYYYYYYYYYYYYYYYYYYYYYYYYYY",
"YYYYYYYYYYYYYYYYYYYYYYYYYYYYYYYY",
"YYYYYYYYYYYYYYYYYYYYYYYYYYYYYYYY",
"YYYYYYIGZMFPYYYYYYYYYYYYYYYYYYYY",
"YYYYYSp7777pAYYYYYYYYYYYYYYYYYYY",
"YYYYDt777777eCYYYYYYYYYYYYYYYYYY",
"YYYKi77777777uHYYYYYYYYYYYYYYYYY",
"YYYx7778YYa777kYYYYYYYYYYYYYYYYY",
"YYYr777XYYY777tJYYYYYYYYYYYYYYYY",
"YYo7777YYYYw777zmmmmmmmmmmmmZBYY",
"YY.7773YYYYw77777777777777777lYY",
"YY 7773YYYYy77777777777777777hYY",
"YY 7779YYYYj7778gggg88888888aYYY",
"YYY7777VYYNe778YYYYY%#######YYYY",
"YYYf777cULb777wYYYYY&#######YYYY",
"YYY+7779vn7777$YYYYY;=======YYYY",
"YYYY0777777778YYYYYY:-------YYYY",
"YYYYY6777777qYYYYYYY2>><1,>>YYYY",
"YYYYYY@gggg*YYYYYYYYd4sYYO45YYYY",
"YYYYYYYYYYYYYYYYYYYYYYYYYYYYYYYY",
"YYYYYYYYYYYYYYYYYYYYYYYYYYYYYYYY",
"YYYYYYYYYYYYYYYYYYYYYYYYYYYYYYYY",
"YYYYYYYYYYYYYYYYYYYYYYYYYYYYYYYY",
"YYYYYYYYYYYYYYYYYYYYYYYYYYYYYYYY",
"YYYYYYYYYYYYYYYYYYYYYYYYYYYYYYYY",
"YYYYYYYYYYYYYYYYYYYYYYYYYYYYYYYY",
"YYYYYYYYYYYYYYYYYYYYYYYYYYYYYYYY",
"YYYYYYYYYYYYYYYYYYYYYYYYYYYYYYYY"
};
